<svg xmlns="http://www.w3.org/2000/svg" viewBox="0 0 461.97 443.58"><defs><style>.cls-1,.cls-3{fill:none;}.cls-1{stroke:#231f20;}.cls-1,.cls-8{stroke-miterlimit:10;}.cls-2,.cls-8{fill:#ededed;stroke:#000;}.cls-2{stroke-linecap:round;stroke-linejoin:round;stroke-width:0.75px;}.cls-2,.cls-4,.cls-5,.cls-6,.cls-7{opacity:0.39;}.cls-4{font-size:38.27px;}.cls-4,.cls-5,.cls-6,.cls-7,.cls-9{fill:#231f20;font-family:MyriadPro-Regular, Myriad Pro;}.cls-5{font-size:35.65px;}.cls-6{font-size:36.21px;}.cls-7{font-size:36.18px;}.cls-8{stroke-width:2px;}.cls-9{font-size:19.56px;}.cls-10{letter-spacing:0.01em;}.cls-11{letter-spacing:-0.01em;}.cls-12{fill:#171715;}</style></defs><title>Asset 7</title><g id="Layer_2" data-name="Layer 2"><g id="Layer_1-2" data-name="Layer 1"><path class="cls-1" d="M207,217.3"/><path class="cls-1" d="M220.87,408.25"/><path class="cls-1" d="M413.73,217.3"/><path class="cls-1" d="M207,217.3"/><path class="cls-2" d="M367.22,360.75a194.64,194.64,0,0,0,.35-275.42l-76.2,76a87.13,87.13,0,0,1-.16,123.22l75.93,76.13"/><path class="cls-2" d="M361.27,366.69a194.64,194.64,0,0,1-275.42-.35l76.2-76a87.13,87.13,0,0,0,123.22.16l75.93,76.13"/><path class="cls-2" d="M85.1,77.9a194.64,194.64,0,0,1,275.42.35l-76.2,76a87.13,87.13,0,0,0-123.22-.16L85.16,78"/><path class="cls-2" d="M79.14,83.84a194.64,194.64,0,0,0-.35,275.42l76.2-76A87.13,87.13,0,0,1,155.14,160L79.21,83.91"/><path class="cls-3" d="M363,230.63A146.58,146.58,0,0,1,216.31,377.3"/><path class="cls-3" d="M77.64,227.29a149.92,149.92,0,0,0,150,150"/><text class="cls-4" transform="matrix(0.44, 0.87, -0.89, 0.45, 348.04, 152.79)">O</text><text class="cls-4" transform="translate(359.3 175.57) rotate(72.08) scale(0.98 1)">v</text><text class="cls-4" transform="translate(364.59 191.6) rotate(79.31) scale(0.98 1)">e</text><text class="cls-4" transform="matrix(0.08, 0.98, -1, 0.08, 367.81, 209.41)">r</text><text class="cls-4" transform="matrix(-0.03, 0.98, -1, -0.04, 368.93, 221.85)">v</text><text class="cls-4" transform="translate(368.11 239.28) rotate(97.5) scale(0.98 1)">i</text><text class="cls-4" transform="matrix(-0.22, 0.95, -0.97, -0.23, 367.32, 247.42)">e</text><text class="cls-4" transform="translate(363.72 264.86) rotate(112.76) scale(0.98 1)">w</text><text class="cls-5" transform="translate(280.98 348.91) rotate(159.86) scale(1.02 1)">F</text><text class="cls-5" transform="matrix(-0.99, 0.26, -0.26, -0.97, 265.63, 354.38)">i</text><text class="cls-5" transform="matrix(-1.01, 0.2, -0.19, -0.98, 257.76, 356.48)">l</text><text class="cls-5" transform="matrix(-1.02, 0.12, -0.12, -0.99, 249.76, 358.13)">t</text><text class="cls-5" transform="translate(238.65 359.64) rotate(179.76) scale(1.02 1)">e</text><text class="cls-5" transform="translate(221 359.57) rotate(-173.83) scale(1.02 1)">r</text><text class="cls-5" transform="translate(209.47 358.27) rotate(-169.46) scale(1.02 1)">i</text><text class="cls-5" transform="matrix(-0.98, -0.29, 0.29, -0.96, 201.6, 357.16)">n</text><text class="cls-5" transform="translate(182.96 351.67) rotate(-154.86) scale(1.02 1)">g</text><text class="cls-6" transform="translate(87.78 272.72) rotate(-107.26) scale(1.01 1)">D</text><text class="cls-6" transform="matrix(-0.14, -1, 0.99, -0.14, 80.96, 250.17)">e</text><text class="cls-6" transform="matrix(-0.03, -1.01, 1, -0.03, 78.6, 232.68)">t</text><text class="cls-6" transform="matrix(0.08, -1.01, 1, 0.08, 78.07, 221.26)">a</text><text class="cls-6" transform="matrix(0.18, -0.99, 0.98, 0.17, 79.6, 204.29)">i</text><text class="cls-6" transform="translate(81.01 196.23) rotate(-76.35) scale(1.01 1)">l</text><text class="cls-6" transform="translate(82.79 188.29) rotate(-71.48) scale(1.01 1)">s</text><text class="cls-7" transform="matrix(0.89, -0.38, 0.39, 0.92, 165.19, 97.17)">R</text><text class="cls-7" transform="translate(181.97 90.02) rotate(-15.31) scale(0.97 1)">e</text><text class="cls-7" transform="translate(198.42 85.72) rotate(-9.82) scale(0.97 1)">l</text><text class="cls-7" transform="matrix(0.97, -0.08, 0.08, 1, 206.02, 84.18)">a</text><text class="cls-7" transform="matrix(0.97, 0.03, -0.03, 1, 222.11, 83.02)">t</text><text class="cls-7" transform="matrix(0.97, 0.1, -0.1, 0.99, 233.29, 83.38)">i</text><text class="cls-7" transform="matrix(0.95, 0.2, -0.21, 0.98, 240.91, 83.84)">o</text><text class="cls-7" transform="translate(258.92 87.56) rotate(20.49) scale(0.97 1)">n</text><circle class="cls-8" cx="222.8" cy="221.55" r="106.62"/><text class="cls-9" transform="translate(193.68 297.3)">E<tspan class="cls-10" x="9.62" y="0">x</tspan><tspan x="18.93" y="0">t</tspan><tspan class="cls-11" x="25.4" y="0">r</tspan><tspan x="31.7" y="0">a</tspan><tspan class="cls-10" x="41.13" y="0">c</tspan><tspan x="50.14" y="0">t</tspan></text><path id="Path_26" data-name="Path 26" class="cls-12" d="M257.18,206.09a10.45,10.45,0,0,0-2.16-3.41l-12.58-12.58a12,12,0,0,0-7.37-3.06H193.36a4.3,4.3,0,0,0-4.32,4.31v60.41a4.29,4.29,0,0,0,4.31,4.31h60.41a4.29,4.29,0,0,0,4.31-4.27s0,0,0,0V210A10.38,10.38,0,0,0,257.18,206.09Zm-39.37-11.86a1.46,1.46,0,0,1,1.44-1.44h8.63a1.46,1.46,0,0,1,1.44,1.44v14.39a1.46,1.46,0,0,1-1.44,1.44h-8.63a1.46,1.46,0,0,1-1.44-1.44V194.22Zm23,56.09H206.3V233.05h34.52Zm11.51,0h-5.75v-18.7a4.3,4.3,0,0,0-4.28-4.32H204.86a4.3,4.3,0,0,0-4.31,4.28s0,0,0,0v18.7H194.8V192.78h5.75v18.7a4.3,4.3,0,0,0,4.28,4.31h25.92a4.3,4.3,0,0,0,4.31-4.28s0,0,0,0v-18.7a6.4,6.4,0,0,1,3.28,1.35L251,206.76a4.84,4.84,0,0,1,.9,1.55,5,5,0,0,1,.45,1.73v40.27Z"/></g></g></svg>