<svg xmlns="http://www.w3.org/2000/svg" viewBox="0 0 128 128"><defs><style>.cls-1{isolation:isolate;}.cls-2{mix-blend-mode:multiply;}.cls-3{fill:#e05951;}.cls-4{fill:#489de3;}.cls-5{fill:none;stroke:#093357;stroke-linecap:round;stroke-linejoin:round;stroke-width:4px;}.cls-6{fill:#e2bc00;}.cls-7{fill:#7569b0;}.cls-8{fill:#093357;}.cls-9{fill:#fff;}</style></defs><title>school</title><g class="cls-1"><g id="icons" class="cls-2"><path class="cls-3" d="M13.55,65.64,42,59v55H14a2,2,0,0,1-2-2V67.59A2,2,0,0,1,13.55,65.64Z"/><path class="cls-3" d="M114.45,65.64,86,59v55h28a2,2,0,0,0,2-2V67.59A2,2,0,0,0,114.45,65.64Z"/><rect class="cls-4" x="64" y="18" width="16" height="12"/><line class="cls-5" x1="64" y1="43" x2="64" y2="18"/><path class="cls-6" d="M86,114H42V49.14a2,2,0,0,1,1-1.72L63,35.6a2,2,0,0,1,2,0L85,47.42a2,2,0,0,1,1,1.72Z"/><rect class="cls-7" x="42" y="106" width="44" height="8"/><path class="cls-8" d="M58,82H70a2,2,0,0,1,2,2v22a0,0,0,0,1,0,0H56a0,0,0,0,1,0,0V84A2,2,0,0,1,58,82Z"/><circle class="cls-9" cx="64" cy="59" r="9"/><rect class="cls-8" x="95" y="74" width="12" height="12" rx="2" ry="2"/><rect class="cls-8" x="95" y="94" width="12" height="12" rx="2" ry="2"/><rect class="cls-8" x="21" y="74" width="12" height="12" rx="2" ry="2"/><rect class="cls-8" x="21" y="94" width="12" height="12" rx="2" ry="2"/></g></g></svg>